<svg width="279" height="231" viewBox="0 0 279 231" fill="none" xmlns="http://www.w3.org/2000/svg">
<g clip-path="url(#clip0_707_38)">
<path d="M89.8245 31.0363L70.1244 31.2716L70.1208 49.9179C70.1152 82.8977 69.3925 165.085 69.0687 169.69C68.2594 181.185 60.4723 187.45 52.0604 183.372C46.797 180.822 45.0556 177.096 44.5891 167.389L44.2122 159.543L23.2694 159.003C11.7509 158.707 1.89503 158.629 1.36756 158.831C0.599418 159.125 0.46526 161.561 0.693855 171.098C0.961494 182.284 1.11696 183.401 3.28436 189.715C6.6281 199.458 9.41172 204.192 15.7229 210.867C25.2721 220.967 36.5265 227.327 49.4791 229.945C57.6077 231.587 71.9848 231.083 78.7511 228.918C85.9795 226.605 89.9594 223.597 92.4867 218.537L94.6165 214.272L94.8458 182.941L95.0744 151.609L110.642 136.036L126.208 120.463L126.207 79.5877C126.206 34.4992 126.324 35.7473 121.735 32.3775C119.435 30.6887 119.345 30.6845 89.8245 31.0363Z" fill="#0B2E4F"/>
<path d="M213.361 1.08731C208.221 3.87993 208.053 12.2919 213.03 17.622C215.842 20.6335 217.126 20.9327 228.792 21.2981L240.151 21.6534L201.816 60.7458C180.732 82.2467 150.862 112.572 135.438 128.137C120.015 143.701 107.178 156.975 106.912 157.634C106.276 159.215 106.215 182.18 106.801 200.264L107.267 214.686L109.695 212.347C118.042 204.301 124.339 189.324 125.936 173.716L126.432 168.867L191.417 103.612C227.158 67.7212 256.579 38.3565 256.795 38.3558C257.012 38.3551 257.095 44.5097 256.981 52.0324C256.747 67.3467 257.318 70.2494 261.199 73.5198C265.275 76.9536 272.565 75.5093 276.737 70.4421L278.842 67.8847V37.6507C278.842 3.84936 278.859 3.97517 273.828 1.27354C271.6 0.0773083 269.202 -0.0229123 243.357 0.00338617C219.928 0.0268416 214.983 0.205962 213.361 1.08731Z" fill="url(#paint0_linear_707_38)"/>
<path d="M204.881 122.583C181.427 146.234 161.717 165.583 161.083 165.582C160.448 165.579 158.492 164.621 156.735 163.452C152.445 160.597 149.731 160.654 146.54 163.668C143.599 166.445 142.764 169.1 143.938 171.939C144.792 174.003 164.827 193.11 167.365 194.281C168.105 194.622 169.836 194.69 171.212 194.432C173.321 194.036 177.026 190.569 194.852 172.31C206.478 160.401 216.521 150.658 217.168 150.658C217.817 150.658 218.54 151.164 218.777 151.783C219.014 152.401 219.208 168.99 219.208 188.647C219.208 224.233 219.214 224.395 220.747 226.345C223.373 229.687 225.903 230.266 237.821 230.249C246.941 230.236 249.143 230.018 251.64 228.883C257.197 226.357 256.834 231.571 256.834 154.212C256.834 94.0455 256.696 84.9306 255.762 83.1209C254.469 80.6183 252.706 79.5813 249.742 79.5813C247.755 79.5813 243.121 84.0229 204.881 122.583Z" fill="#078669"/>
</g>
<defs>
<linearGradient id="paint0_linear_707_38" x1="312.366" y1="7.10769" x2="326.598" y2="156.366" gradientUnits="userSpaceOnUse">
<stop stop-color="#0CDF8C"/>
<stop offset="1" stop-color="#0C8669"/>
</linearGradient>
<clipPath id="clip0_707_38">
<rect width="279" height="231" fill="white"/>
</clipPath>
</defs>
</svg>
