<svg width="519" height="447" viewBox="0 0 519 447" fill="none" xmlns="http://www.w3.org/2000/svg"><path d="M20.625 418.938C13.9062 418.938 7.15625 417.219 0.375 413.781L7.875 399.203C9.78125 400.516 11.5156 401.484 13.0781 402.109C14.6719 402.734 16.3906 403.047 18.2344 403.047C20.4844 403.047 22.0781 402.359 23.0156 400.984C23.9844 399.609 24.4688 397.094 24.4688 393.438V349.094H42.3281V396.859C42.3281 404.047 40.3594 409.531 36.4219 413.312C32.5156 417.062 27.25 418.938 20.625 418.938ZM79.5469 418.938C70.9844 418.938 64.0938 416.656 58.875 412.094C53.6562 407.531 51.0469 401.219 51.0469 393.156C51.0469 387.812 52.25 383.188 54.6562 379.281C57.0625 375.375 60.3906 372.422 64.6406 370.422C68.9219 368.422 73.8906 367.422 79.5469 367.422C88.2031 367.422 95.1406 369.703 100.359 374.266C105.578 378.797 108.188 385.094 108.188 393.156C108.188 401.219 105.562 407.531 100.312 412.094C95.0938 416.656 88.1719 418.938 79.5469 418.938ZM79.3594 405.625C82.9844 405.625 85.8594 404.484 87.9844 402.203C90.1094 399.891 91.1719 396.875 91.1719 393.156C91.1719 389.406 90.1094 386.391 87.9844 384.109C85.8594 381.797 82.9844 380.641 79.3594 380.641C75.9531 380.641 73.2188 381.797 71.1562 384.109C69.0938 386.422 68.0625 389.438 68.0625 393.156C68.0625 396.875 69.0938 399.891 71.1562 402.203C73.2188 404.484 75.9531 405.625 79.3594 405.625ZM147.422 367.422C150.734 367.422 153.859 368.016 156.797 369.203C159.734 370.359 162.312 372.016 164.531 374.172C166.75 376.297 168.5 379.016 169.781 382.328C171.062 385.641 171.703 389.312 171.703 393.344C171.703 397.375 171.062 401.047 169.781 404.359C168.5 407.641 166.75 410.359 164.531 412.516C162.312 414.672 159.734 416.344 156.797 417.531C153.859 418.688 150.734 419.266 147.422 419.266C144.234 419.266 141.359 418.75 138.797 417.719C136.234 416.688 134.297 415.203 132.984 413.266L132.609 418H116.484V346H133.594V372.578C135 370.891 136.922 369.609 139.359 368.734C141.797 367.859 144.484 367.422 147.422 367.422ZM143.391 405.25C146.641 405.25 149.312 404.188 151.406 402.062C153.531 399.938 154.594 397.031 154.594 393.344C154.594 389.656 153.531 386.75 151.406 384.625C149.312 382.5 146.641 381.438 143.391 381.438C140.109 381.438 137.406 382.5 135.281 384.625C133.188 386.75 132.141 389.656 132.141 393.344C132.141 397.031 133.188 399.938 135.281 402.062C137.406 404.188 140.109 405.25 143.391 405.25ZM289.453 418H271.594L267.094 369.438L252.516 418H240.703L226.125 369.203L221.578 418H203.625L209.672 349.094H235.781L246.562 384.297L257.484 349.094H283.5L289.453 418ZM348.984 392.641L348.797 396.578H313.359C313.703 399.547 314.844 401.812 316.781 403.375C318.719 404.938 321.109 405.719 323.953 405.719C328.422 405.719 331.328 403.953 332.672 400.422L348.422 402.438C346.922 407.688 344 411.75 339.656 414.625C335.312 417.5 330.109 418.938 324.047 418.938C315.422 418.938 308.656 416.688 303.75 412.188C298.844 407.656 296.391 401.344 296.391 393.25C296.391 385.156 298.859 378.812 303.797 374.219C308.734 369.625 315.297 367.328 323.484 367.328C327.203 367.328 330.562 367.828 333.562 368.828C336.594 369.797 339.266 371.281 341.578 373.281C343.922 375.25 345.734 377.891 347.016 381.203C348.297 384.484 348.953 388.297 348.984 392.641ZM323.578 379.141C318.266 379.141 315.016 381.344 313.828 385.75H332.203C331.734 383.625 330.734 382 329.203 380.875C327.672 379.719 325.797 379.141 323.578 379.141ZM377.766 418C372.516 418 368.484 416.562 365.672 413.688C362.859 410.781 361.453 406.656 361.453 401.312V381.344H351.938V368.359H354.75C357.656 368.359 359.844 367.609 361.312 366.109C362.812 364.609 363.562 361.844 363.562 357.812V352.703H378.844V368.359H388.312V381.344H378.844V399.391C378.844 401.453 379.25 402.953 380.062 403.891C380.906 404.797 382.188 405.25 383.906 405.25H388.312V418H377.766ZM414.234 375.812C415.609 373.688 417.844 371.828 420.938 370.234C424.031 368.609 427.297 367.797 430.734 367.797V382.75C427.859 382.75 425.484 382.938 423.609 383.312C421.766 383.656 420.188 384.297 418.875 385.234C417.562 386.172 416.625 387.453 416.062 389.078C415.5 390.672 415.219 392.734 415.219 395.266V418H397.922V368.359H414.234V375.812ZM446.297 363.578C443.703 363.578 441.484 362.672 439.641 360.859C437.797 359.047 436.875 356.844 436.875 354.25C436.875 351.719 437.797 349.562 439.641 347.781C441.484 345.969 443.703 345.062 446.297 345.062C448.797 345.062 450.953 345.969 452.766 347.781C454.578 349.562 455.484 351.719 455.484 354.25C455.484 356.844 454.578 359.047 452.766 360.859C450.953 362.672 448.797 363.578 446.297 363.578ZM437.578 418V368.359H454.781V418H437.578ZM490.734 418.938C482.484 418.938 475.797 416.562 470.672 411.812C465.547 407.031 462.984 400.812 462.984 393.156C462.984 385.469 465.547 379.266 470.672 374.547C475.797 369.797 482.484 367.422 490.734 367.422C497.609 367.422 503.297 369.109 507.797 372.484C512.328 375.828 515.094 380.594 516.094 386.781L500.344 388.234C499.344 383.172 496.078 380.641 490.547 380.641C487.328 380.641 484.781 381.797 482.906 384.109C481.031 386.391 480.094 389.406 480.094 393.156C480.094 396.875 481.031 399.891 482.906 402.203C484.781 404.484 487.328 405.625 490.547 405.625C496.078 405.625 499.344 403.094 500.344 398.031L516.094 399.484C515.094 405.641 512.297 410.422 507.703 413.828C503.109 417.234 497.453 418.938 490.734 418.938Z" fill="#0B2E4F"/><g clip-path="url(#clip0_707_44)"><path d="M126.527 43.6658L98.7774 43.9968L98.7724 70.2308C98.7644 116.631 97.7464 232.262 97.2904 238.741C96.1504 254.914 85.1814 263.728 73.3324 257.991C65.9184 254.403 63.4654 249.161 62.8084 235.504L62.2774 224.465L32.7774 223.706C16.5524 223.289 2.66938 223.18 1.92638 223.463C0.844378 223.877 0.655403 227.304 0.977403 240.722C1.3544 256.46 1.57339 258.032 4.62639 266.915C9.33639 280.623 13.2574 287.283 22.1474 296.674C35.5984 310.884 51.4514 319.833 69.6964 323.515C81.1464 325.826 101.398 325.117 110.929 322.071C121.111 318.817 126.717 314.585 130.277 307.465L133.277 301.465L133.6 257.384L133.922 213.303L155.85 191.393L177.777 169.482L177.775 111.974C177.774 48.5378 177.94 50.2938 171.476 45.5528C168.237 43.1768 168.109 43.1708 126.527 43.6658Z" fill="#0B2E4F"/><path d="M300.54 1.52977C293.3 5.45877 293.064 17.2938 300.075 24.7928C304.036 29.0298 305.844 29.4508 322.277 29.9648L338.277 30.4648L284.278 85.4648C254.579 115.715 212.504 158.381 190.778 180.279C169.053 202.177 150.971 220.852 150.597 221.779C149.7 224.004 149.615 256.314 150.44 281.756L151.097 302.047L154.516 298.756C166.274 287.437 175.144 266.365 177.393 244.405L178.092 237.584L269.63 145.775C319.975 95.2788 361.417 53.9648 361.722 53.9638C362.027 53.9628 362.145 62.6218 361.984 73.2058C361.655 94.7518 362.458 98.8358 367.926 103.437C373.667 108.268 383.935 106.236 389.812 99.1068L392.777 95.5088V52.9718C392.777 5.41576 392.801 5.59277 385.715 1.79177C382.576 0.108767 379.199 -0.0322359 342.793 0.00476409C309.791 0.0377641 302.826 0.289773 300.54 1.52977Z" fill="url(#paint0_linear_707_44)"/><path d="M288.596 172.465C255.558 205.74 227.795 232.963 226.902 232.961C226.008 232.958 223.252 231.61 220.777 229.965C214.734 225.948 210.912 226.029 206.417 230.269C202.274 234.176 201.098 237.911 202.752 241.906C203.955 244.809 232.175 271.692 235.75 273.339C236.793 273.819 239.231 273.915 241.169 273.551C244.14 272.994 249.359 268.116 274.469 242.428C290.846 225.673 304.992 211.965 305.904 211.965C306.817 211.965 307.836 212.677 308.17 213.547C308.504 214.417 308.777 237.756 308.777 265.412C308.777 315.479 308.786 315.707 310.945 318.451C314.644 323.153 318.207 323.967 334.995 323.943C347.841 323.925 350.944 323.618 354.461 322.022C362.288 318.468 361.777 325.804 361.777 216.965C361.777 132.315 361.583 119.491 360.267 116.945C358.446 113.424 355.962 111.965 351.787 111.965C348.988 111.965 342.461 118.214 288.596 172.465Z" fill="#078669"/></g><defs><linearGradient id="paint0_linear_707_44" x1="440" y1="10" x2="460" y2="220" gradientUnits="userSpaceOnUse"><stop stop-color="#0CDF8C"/><stop offset="1" stop-color="#0C8669"/></linearGradient><clipPath id="clip0_707_44"><rect width="393" height="325" fill="white"/></clipPath></defs></svg>
